
Paolo Santos' Acoustic Night Out VCDrip (2004)

My connection is not great, please seed so that everyone may enjoy this content.

---------------------------------------------------------------------------------

General
Complete name                            : Paolo Santos Acoustic Night Out.mp4
Format                                   : MPEG-4
Format profile                           : Base Media
Codec ID                                 : isom
File size                                : 258 MiB
Duration                                 : 1h 9mn
Overall bit rate                         : 519 Kbps
Encoded date                             : UTC 2013-04-09 03:02:49
Tagged date                              : UTC 2013-04-09 03:02:49
Writing application                      : vlc 2.0.5 stream output

Video
ID                                       : 2
Format                                   : AVC
Format/Info                              : Advanced Video Codec
Format profile                           : High@L1.3
Format settings, CABAC                   : Yes
Format settings, ReFrames                : 4 frames
Codec ID                                 : avc1
Codec ID/Info                            : Advanced Video Coding
Duration                                 : 1h 9mn
Source duration                          : 1h 9mn
Bit rate                                 : 384 Kbps
Width                                    : 352 pixels
Height                                   : 240 pixels
Display aspect ratio                     : 4:3
Frame rate mode                          : Variable
Frame rate                               : 29.970 fps
Minimum frame rate                       : 29.441 fps
Maximum frame rate                       : 30.333 fps
Standard                                 : NTSC
Color space                              : YUV
Chroma subsampling                       : 4:2:0
Bit depth                                : 8 bits
Scan type                                : Progressive
Bits/(Pixel*Frame)                       : 0.152
Stream size                              : 190 MiB (74%)
Source stream size                       : 190 MiB (74%)
Language                                 : English
Encoded date                             : UTC 2013-04-09 03:02:49
Tagged date                              : UTC 2013-04-09 03:02:49
mdhd_Duration                            : 4164527

Audio
ID                                       : 1
Format                                   : MPEG Audio
Format version                           : Version 1
Format profile                           : Layer 2
Codec ID                                 : 6B
Duration                                 : 1h 9mn
Source duration                          : 1h 9mn
Bit rate mode                            : Constant
Bit rate                                 : 128 Kbps
Channel(s)                               : 2 channels
Sampling rate                            : 44.1 KHz
Compression mode                         : Lossy
Stream size                              : 63.4 MiB (25%)
Source stream size                       : 63.4 MiB (25%)
Language                                 : English
Encoded date                             : UTC 2013-04-09 03:02:49
Tagged date                              : UTC 2013-04-09 03:02:49
mdhd_Duration                            : 4164467

